# xmcd CD database file
#
# Track frame offsets:
#	150
#	31338
#	73710
#	110940
#	141621
#	169368
#	194836
#	224508
#
# Disc length: 3493 seconds
#
# Revision: 0
# Processed by: cddbd v1.5.2PL0 Copyright (c) Steve Scherf et al.
# Submitted via: CDex 1.70beta2
#
DISCID=8e0da308
DTITLE=Diana Rogers - Love Reigns
DYEAR=2007
DGENRE=New Age
TTITLE0=Jai Rasha Mashhava
TTITLE1=Om Narayani
TTITLE2=He Mata Durga
TTITLE3=Jaya Rasha
TTITLE4=Jai Ambe 
TTITLE5=Jai  Jagasamse
TTITLE6=Sri Ram
TTITLE7=Om Shanti
EXTD=YEAR: 2007
EXTT0=
EXTT1=
EXTT2=
EXTT3=
EXTT4=
EXTT5=
EXTT6=
EXTT7=
PLAYORDER=
